<?xml version="1.0" encoding="iso-8859-1"?>
<!-- Uploaded to: SVG Repo, www.svgrepo.com, Generator: SVG Repo Mixer Tools -->
<svg version="1.1" id="Layer_1" xmlns="http://www.w3.org/2000/svg" xmlns:xlink="http://www.w3.org/1999/xlink" 
	 viewBox="0 0 512 512" xml:space="preserve">
<polygon style="fill:#DBDBDB;" points="393.634,250.495 426.667,250.495 426.667,173.419 393.634,162.409 "/>
<polygon style="fill:#F6E27D;" points="239.484,184.43 215.101,118.627 272.516,96.344 327.57,162.409 "/>
<polygon style="fill:#EFC27B;" points="272.516,96.344 250.495,104.891 250.495,181.677 327.57,162.409 "/>
<path style="fill:#797781;" d="M233.979,382.624h220.215c27.363,0,49.548,22.186,49.548,49.548
	c0,27.363-22.186,49.548-49.548,49.548H233.979c-27.363,0-49.548-22.186-49.548-49.548
	C184.43,404.809,206.616,382.624,233.979,382.624z"/>
<path style="fill:#58575D;" d="M454.194,382.624H250.495v99.097h203.699c27.363,0,49.548-22.186,49.548-49.548
	C503.742,404.809,481.556,382.624,454.194,382.624z"/>
<rect x="239.484" y="327.57" style="fill:#F6E27D;" width="209.204" height="55.054"/>
<g>
	<rect x="250.495" y="327.57" style="fill:#EFC27B;" width="198.194" height="55.054"/>
	<polygon style="fill:#EFC27B;" points="85.333,30.28 19.269,30.28 19.269,349.591 63.312,349.591 	"/>
</g>
<polygon style="fill:#F6E27D;" points="52.301,118.366 239.484,129.376 239.484,63.312 52.301,74.323 "/>
<g>
	<circle style="fill:#F8E99B;" cx="239.484" cy="96.344" r="33.032"/>
	<circle style="fill:#F8E99B;" cx="52.301" cy="96.344" r="22.022"/>
</g>
<path style="fill:#F6E27D;" d="M107.355,437.677H57.806c-27.365,0-49.548-22.183-49.548-49.548v-49.548h49.548
	c27.365,0,49.548,22.183,49.548,49.548V437.677z"/>
<path style="fill:#F8E99B;" d="M481.72,250.495v88.086H206.452v-88.086c0-48.649,39.437-88.086,88.086-88.086h44.043v88.086H481.72z
	"/>
<path style="fill:#F6E27D;" d="M481.72,250.495h-143.14v-88.086h-44.043c-16.05,0-31.083,4.314-44.043,11.815v164.358H481.72
	V250.495z"/>
<path style="fill:#88888F;" d="M454.194,489.979H233.979c-31.875,0-57.806-25.931-57.806-57.806s25.931-57.806,57.806-57.806
	h220.215c31.875,0,57.806,25.931,57.806,57.806S486.069,489.979,454.194,489.979z M233.979,390.882
	c-22.768,0-41.29,18.522-41.29,41.29s18.522,41.29,41.29,41.29h220.215c22.768,0,41.29-18.522,41.29-41.29
	s-18.522-41.29-41.29-41.29H233.979z"/>
<g>
	<path style="fill:#DBDBDB;" d="M454.194,445.935c-7.59,0-13.763-6.174-13.763-13.763s6.174-13.763,13.763-13.763
		c7.59,0,13.763,6.174,13.763,13.763S461.783,445.935,454.194,445.935z"/>
	<path style="fill:#DBDBDB;" d="M344.086,445.935c-7.59,0-13.763-6.174-13.763-13.763s6.174-13.763,13.763-13.763
		s13.763,6.174,13.763,13.763S351.676,445.935,344.086,445.935z"/>
</g>
<path style="fill:#EDEDED;" d="M233.979,445.935c-7.59,0-13.763-6.174-13.763-13.763s6.174-13.763,13.763-13.763
	s13.763,6.174,13.763,13.763S241.568,445.935,233.979,445.935z"/>
<g>
	<path style="fill:#DBDBDB;" d="M289.032,445.935c-7.59,0-13.763-6.174-13.763-13.763s6.174-13.763,13.763-13.763
		s13.763,6.174,13.763,13.763S296.622,445.935,289.032,445.935z"/>
	<path style="fill:#DBDBDB;" d="M399.14,445.935c-7.59,0-13.763-6.174-13.763-13.763s6.174-13.763,13.763-13.763
		s13.763,6.174,13.763,13.763S406.73,445.935,399.14,445.935z"/>
</g>
<path style="fill:#D1E5F5;" d="M250.495,250.495c0-24.324,19.719-44.043,44.043-44.043v44.043H250.495z"/>
<g>
	<rect x="371.613" y="228.473" style="fill:#797781;" width="77.075" height="44.043"/>
	<path style="fill:#797781;" d="M426.667,313.806H261.505c-4.561,0-8.258-3.697-8.258-8.258c0-4.561,3.697-8.258,8.258-8.258
		h165.161c4.561,0,8.258,3.697,8.258,8.258C434.925,310.109,431.227,313.806,426.667,313.806z"/>
	<path style="fill:#797781;" d="M454.194,374.366H250.495v16.516h203.699c22.768,0,41.29,18.522,41.29,41.29
		s-18.522,41.29-41.29,41.29H250.495v16.516h203.699c31.875,0,57.806-25.931,57.806-57.806S486.069,374.366,454.194,374.366z"/>
</g>
<path style="fill:#F6E27D;" d="M272.516,96.344c0-14.382-9.193-26.61-22.022-31.145v62.29
	C263.323,122.954,272.516,110.726,272.516,96.344z"/>
<polygon style="fill:#B4D8F1;" points="294.538,250.495 294.538,206.452 250.495,250.495 "/>
<g>
	<path style="fill:#2E2D31;" d="M503.742,473.462h-9.148c10.73-10.501,17.406-25.128,17.406-41.29
		c0-30.951-24.453-56.295-55.054-57.736v-27.597h24.774c4.561,0,8.258-3.697,8.258-8.258v-88.086c0-4.561-3.697-8.258-8.258-8.258
		h-24.774v-13.763c0-4.561-3.697-8.258-8.258-8.258h-13.763v-46.796c0-3.554-2.275-6.71-5.646-7.834l-33.032-11.011
		c-2.517-0.839-5.286-0.416-7.44,1.135c-2.154,1.553-3.43,4.045-3.43,6.7v57.805h-13.763c-4.561,0-8.258,3.697-8.258,8.258v13.763
		h-16.516v-79.828c0-4.561-3.697-8.258-8.258-8.258h-7.143l-50.796-60.954c-1.605-21.16-19.219-37.912-40.732-38.131
		c-0.059-0.002-0.119-0.003-0.179-0.004c-0.083,0-0.164-0.007-0.247-0.007c-1.525,0-3.03,0.089-4.513,0.252l-143.75,8.456
		l2.35-32.894c0.163-2.287-0.631-4.539-2.193-6.216c-1.562-1.679-3.751-2.632-6.044-2.632H19.269c-4.561,0-8.258,3.697-8.258,8.258
		v300.043H8.258c-4.561,0-8.258,3.697-8.258,8.258v49.548c0,31.875,25.931,57.806,57.806,57.806h49.548
		c0.058,0,0.115-0.008,0.172-0.009c0.058,0.001,0.115,0.009,0.172,0.009h21.333c4.561,0,8.258-3.697,8.258-8.258
		s-3.697-8.258-8.258-8.258h-13.419v-41.29c0-26.959-18.552-49.663-43.56-56.026l14.532-203.449l126.436,7.438l16.744,43.14
		c-19.384,17.636-31.572,43.052-31.572,71.263v88.086c0,4.561,3.697,8.258,8.258,8.258h24.774v27.597
		c-30.601,1.441-55.054,26.785-55.054,57.736c0,16.163,6.676,30.789,17.406,41.29h-9.148c-4.561,0-8.258,3.697-8.258,8.258
		c0,4.561,3.697,8.258,8.258,8.258h319.312c4.561,0,8.258-3.697,8.258-8.258C512,477.16,508.303,473.462,503.742,473.462z
		 M401.892,173.866l16.516,5.505v40.843h-16.516V173.866z M440.43,236.731v27.527h-60.559v-27.527H440.43z M264.258,96.344
		c0,13.605-11.024,24.68-24.608,24.77l-3.201-0.188c-12.233-1.502-21.74-11.949-21.74-24.582s9.507-23.08,21.74-24.581l3.201-0.188
		C253.234,71.665,264.258,82.739,264.258,96.344z M76.464,38.538l-1.872,26.201l-22.71,1.337
		c-10.062,0.138-18.947,5.204-24.356,12.891V38.538H76.464z M52.301,82.581c7.59,0,13.763,6.174,13.763,13.763
		c0,7.59-6.174,13.763-13.763,13.763s-13.763-6.174-13.763-13.763C38.538,88.754,44.711,82.581,52.301,82.581z M99.097,388.129
		v41.29h-41.29c-22.768,0-41.29-18.522-41.29-41.29v-41.29h41.29C80.574,346.839,99.097,365.361,99.097,388.129z M55.623,330.323
		H27.527V113.721c5.408,7.688,14.294,12.754,24.356,12.891l18.215,1.071L55.623,330.323z M90.035,80.375L205.04,73.61
		c-4.322,6.525-6.846,14.339-6.846,22.734s2.525,16.209,6.845,22.734L87.762,112.18L90.035,80.375z M231.153,137.158l3.819,0.225
		c1.483,0.162,2.987,0.252,4.513,0.252c0.001,0,0.002,0,0.004,0c0.001,0,0.002,0,0.003,0c0.003,0,0.006-0.001,0.008-0.001
		c16.35-0.006,30.509-9.564,37.187-23.386l33.252,39.902h-15.402c-18.752,0-36.267,5.391-51.085,14.696L231.153,137.158z
		 M214.71,250.495c0-44.018,35.81-79.828,79.828-79.828h35.785v79.828c0,4.561,3.697,8.258,8.258,8.258h24.774v13.763
		c0,4.561,3.697,8.258,8.258,8.258h77.075c4.561,0,8.258-3.697,8.258-8.258v-13.763h16.516v71.57H214.71V250.495z M440.43,346.839
		v27.527H247.742v-27.527H440.43z M233.979,473.462c-22.768,0-41.29-18.522-41.29-41.29s18.522-41.29,41.29-41.29h220.215
		c22.768,0,41.29,18.522,41.29,41.29s-18.522,41.29-41.29,41.29H233.979z"/>
	<path style="fill:#2E2D31;" d="M250.495,258.753h44.043c4.561,0,8.258-3.697,8.258-8.258v-44.043c0-4.561-3.697-8.258-8.258-8.258
		c-28.838,0-52.301,23.463-52.301,52.301C242.237,255.055,245.934,258.753,250.495,258.753z M286.28,215.672v26.565h-26.566
		C262.823,229.124,273.167,218.78,286.28,215.672z"/>
	<path style="fill:#2E2D31;" d="M253.247,305.548c0,4.561,3.697,8.258,8.258,8.258h165.161c4.561,0,8.258-3.697,8.258-8.258
		c0-4.561-3.697-8.258-8.258-8.258H261.505C256.945,297.29,253.247,300.988,253.247,305.548z"/>
</g>
</svg>