<?xml version="1.0" encoding="utf-8"?>
<!-- Uploaded to: SVG Repo, www.svgrepo.com, Generator: SVG Repo Mixer Tools -->
<svg fill="#808080" version="1.1" id="Layer_1" xmlns="http://www.w3.org/2000/svg"
	xmlns:xlink="http://www.w3.org/1999/xlink"
	width="800px" height="800px" viewBox="0 0 229 256" enable-background="new 0 0 229 256"
	xml:space="preserve">
<path d="M50.011,40.749c9.851,0,17.837,7.986,17.837,17.837s-7.986,17.837-17.837,17.837s-17.837-7.986-17.837-17.837
	S40.16,40.749,50.011,40.749z M226.78,149.656v-11.812h-7.998V17.709h-47.25V2H159.72v15.709h-47.25v74.854h-5.598
	c-0.422-1.512-1.222-2.94-2.412-4.129c-1.843-1.844-4.259-2.765-6.676-2.765s-4.834,0.921-6.676,2.765l-18.326,18.326
	c0,0-19.694-19.676-22.514-22.346c-1.574-1.491-4.168-3.276-6.507-4.116c-9.824-3.524-20.633,1.595-24.147,11.409L4.155,138.038
	c-1.282,3.842-1.935,7.866-1.935,11.917v91.249c0,7.273,6.066,13.128,13.415,12.782c6.883-0.324,12.179-6.253,12.179-13.143v-78.487
	l22.354-51.501l15.937,15.936c1.843,1.844,4.26,2.765,6.676,2.765c2.416,0,4.834-0.922,6.676-2.765l25.002-25.002
	c0.38-0.38,0.712-0.79,1.014-1.214h6.997v37.269h-7.875v11.812h19.687L104.595,254h11.812l19.687-104.344h23.625v51.902h11.813
	v-51.902h23.625L214.845,254h11.812L206.97,149.656H226.78z M124.282,137.844v-37.269h19.687v-8.012h-19.687V29.521h82.687v108.323
	H124.282z"/>
</svg>