<?xml version="1.0" encoding="iso-8859-1"?>
<!-- Uploaded to: SVG Repo, www.svgrepo.com, Generator: SVG Repo Mixer Tools -->
<svg height="800px" width="800px" version="1.1" id="Layer_1" xmlns="http://www.w3.org/2000/svg" xmlns:xlink="http://www.w3.org/1999/xlink" 
	 viewBox="0 0 511.997 511.997" xml:space="preserve">
<path style="fill:#F0C087;" d="M256.104,364.155c-17.706,0.033-32.034,14.414-32.001,32.121l0.015,8.015
	c0.033,17.706,14.414,32.034,32.121,32c17.706-0.033,32.034-14.414,32-32.121l-0.015-8.015
	C288.192,378.449,273.811,364.122,256.104,364.155z"/>
<path style="fill:#B4E1FA;" d="M288.403,452.524l-6.803,0.013c-5.844,9.537-14.943,15.796-25.301,15.815
	c-10.357,0.019-19.48-6.205-25.36-15.72l-6.803,0.013c-14.205,0.027-23.947,14.073-23.929,23.828l0.033,17.361
	c0.007,3.677,3.021,6.68,6.698,6.673l98.876-0.185c3.673-0.007,6.646-2.991,6.639-6.664l-0.033-17.394
	C312.403,466.507,302.608,452.498,288.403,452.524z"/>
<path style="fill:#F0C087;" d="M255.441,11.489c-17.706,0.033-32.034,14.414-32.001,32.121l0.015,8.015
	c0.033,17.706,14.414,32.034,32.121,32.001s32.034-14.414,32.001-32.121l-0.015-8.015C287.529,25.783,273.148,11.456,255.441,11.489
	z"/>
<path style="fill:#707487;" d="M287.74,99.858l-6.803,0.013c-5.844,9.537-14.943,15.796-25.301,15.815
	c-10.357,0.019-19.48-6.205-25.36-15.72l-6.803,0.013c-14.205,0.027-23.947,14.073-23.929,23.828l0.033,17.361
	c0.007,3.677,3.021,6.68,6.698,6.673l98.876-0.186c3.673-0.007,6.646-2.991,6.639-6.664l-0.033-17.394
	C311.739,113.841,301.945,99.831,287.74,99.858z"/>
<path style="fill:#F0C087;" d="M448.136,187.461c-17.706,0.033-32.034,14.414-32.001,32.121l0.015,8.015
	c0.033,17.706,14.414,32.034,32.121,32c17.706-0.033,32.034-14.414,32.001-32.121l-0.015-8.015
	C480.224,201.754,465.843,187.428,448.136,187.461z"/>
<path style="fill:#EFF2FA;" d="M480.434,275.83l-6.803,0.013c-5.844,9.537-14.943,15.796-25.301,15.815
	c-10.358,0.019-19.48-6.205-25.36-15.72l-6.803,0.013c-14.205,0.027-23.947,14.073-23.929,23.828l0.033,17.361
	c0.007,3.677,3.021,6.68,6.698,6.673l98.876-0.185c3.673-0.007,6.646-2.991,6.639-6.664l-0.033-17.394
	C504.435,289.812,494.64,275.803,480.434,275.83z"/>
<path style="fill:#F0C087;" d="M63.409,188.184c-17.706,0.033-32.034,14.414-32.001,32.121l0.015,8.015
	c0.033,17.706,14.414,32.034,32.121,32.001s32.034-14.414,32.001-32.121l-0.015-8.015C95.497,202.477,81.116,188.15,63.409,188.184z
	"/>
<path style="fill:#EFF2FA;" d="M95.708,276.552l-6.803,0.013c-5.844,9.537-14.943,15.796-25.301,15.815
	c-10.357,0.019-19.48-6.205-25.36-15.72l-6.803,0.013c-14.204,0.027-23.945,14.073-23.927,23.828l0.033,17.361
	c0.007,3.677,3.021,6.68,6.698,6.673l98.876-0.185c3.673-0.007,6.646-2.991,6.639-6.664l-0.033-17.394
	C119.708,290.535,109.913,276.526,95.708,276.552z"/>
<path d="M256.09,356.641c-21.821,0.041-39.541,17.828-39.5,39.65l0.015,8.015c0.041,21.781,17.794,39.501,39.574,39.501
	c0.005,0,0.071,0,0.076,0c10.571-0.02,20.501-4.155,27.962-11.644c7.461-7.489,11.559-17.435,11.539-28.005l-0.015-8.016
	C295.698,374.36,277.945,356.641,256.09,356.641z M273.569,421.556c-4.628,4.645-10.786,7.21-17.344,7.222l-0.047,7.514v-7.514
	c-13.509,0-24.519-10.991-24.545-24.5l-0.015-8.015c-0.025-13.536,10.965-24.567,24.547-24.592c13.509,0,24.519,10.991,24.545,24.5
	l0.015,8.015C280.738,410.742,278.196,416.911,273.569,421.556z"/>
<path d="M288.388,445.01l-6.803,0.013c-2.609,0.005-5.029,1.364-6.393,3.589c-4.753,7.757-11.644,12.213-18.942,12.227
	c-7.25,0-14.146-4.43-18.92-12.156c-1.37-2.215-3.788-3.564-6.392-3.564c-0.005,0-0.01,0-0.014,0l-6.803,0.013
	c-8.597,0.016-16.73,3.847-22.899,10.787c-5.353,6.021-8.542,13.711-8.529,20.569l0.032,17.362
	c0.016,7.814,6.385,14.172,14.199,14.172c0.005,0,0.022,0,0.027,0l98.876-0.186c7.81-0.015,14.153-6.381,14.138-14.192
	l-0.033-17.394C319.908,461.803,306.146,445.01,288.388,445.01z M207.754,492.99l-0.031-16.531
	c-0.005-2.599,1.457-6.871,4.732-10.555c1.903-2.14,5.953-5.733,11.696-5.744l2.824-0.005c7.504,10.039,17.985,15.713,29.337,15.713
	c11.322-0.021,21.798-5.735,29.278-15.823l2.851-0.005c10.034,0,16.453,10.662,16.463,16.238l0.031,16.531L207.754,492.99z"/>
<path d="M255.515,91.14c0.005,0,0.071,0,0.076,0c10.571-0.02,20.501-4.155,27.962-11.644s11.559-17.434,11.539-28.005l-0.015-8.015
	c-0.041-21.78-17.794-39.501-39.65-39.501c-21.821,0.041-39.541,17.828-39.5,39.649l0.015,8.015
	C215.983,73.419,233.736,91.14,255.515,91.14z M255.503,19.003c13.509,0,24.52,10.991,24.545,24.5l0.015,8.015
	c0.012,6.556-2.529,12.725-7.157,17.37c-4.628,4.645-10.786,7.21-17.344,7.222l-0.047,7.514V76.11
	c-13.509,0-24.519-10.991-24.545-24.5l-0.015-8.015C230.93,30.061,241.92,19.028,255.503,19.003z"/>
<path d="M206.264,155.354c0.005,0,0.022,0,0.027,0l98.876-0.186c7.81-0.015,14.153-6.381,14.138-14.192l-0.033-17.394
	c-0.027-14.445-13.789-31.238-31.547-31.238l-6.803,0.013c-2.609,0.005-5.029,1.364-6.393,3.589
	c-4.753,7.757-11.644,12.213-18.942,12.227c-7.249,0-14.145-4.43-18.919-12.156c-1.37-2.216-3.788-3.565-6.392-3.565
	c-0.004,0-0.009,0-0.014,0l-6.803,0.013c-8.597,0.017-16.73,3.847-22.899,10.787c-5.353,6.021-8.542,13.711-8.529,20.569
	l0.033,17.361C192.079,148.995,198.449,155.354,206.264,155.354z M211.792,113.238c1.903-2.141,5.953-5.734,11.696-5.744
	l2.824-0.005c7.504,10.04,17.984,15.713,29.337,15.713c11.322-0.021,21.798-5.734,29.278-15.823l2.85-0.005
	c10.034,0,16.453,10.662,16.463,16.238l0.031,16.531l-97.183,0.182l-0.031-16.531C207.056,121.194,208.517,116.922,211.792,113.238z
	"/>
<path d="M408.622,219.596l0.015,8.015c0.041,21.78,17.794,39.5,39.574,39.5c0.005,0,0.071,0,0.076,0
	c10.571-0.02,20.501-4.155,27.962-11.644c7.46-7.489,11.559-17.435,11.539-28.006l-0.015-8.015
	c-0.041-21.78-17.794-39.501-39.649-39.501C426.3,179.988,408.581,197.774,408.622,219.596z M448.197,194.975
	c13.509,0,24.519,10.991,24.545,24.5l0.015,8.015c0.012,6.556-2.529,12.725-7.157,17.371c-4.628,4.645-10.787,7.21-17.344,7.222
	l-0.047,7.514v-7.514c-13.509,0-24.519-10.991-24.545-24.499l-0.015-8.015C423.625,206.033,434.615,195,448.197,194.975z"/>
<path d="M511.967,299.553c-0.027-14.445-13.789-31.238-31.547-31.238l-6.803,0.013c-2.609,0.005-5.029,1.363-6.393,3.589
	c-4.753,7.757-11.644,12.213-18.942,12.227c-7.25,0-14.146-4.43-18.92-12.156c-1.37-2.216-3.788-3.565-6.392-3.565
	c-0.005,0-0.01,0-0.014,0l-6.803,0.013c-8.597,0.016-16.73,3.847-22.899,10.787c-5.353,6.021-8.542,13.711-8.529,20.568
	l0.032,17.361c0.015,7.814,6.384,14.172,14.198,14.173c0.005,0,0.023,0,0.028,0l98.876-0.186c7.81-0.015,14.153-6.381,14.138-14.192
	L511.967,299.553z M399.786,316.296l-0.03-16.531c-0.005-2.599,1.457-6.871,4.732-10.556c1.903-2.14,5.953-5.733,11.696-5.744
	l2.824-0.005c7.504,10.04,17.985,15.713,29.337,15.713c11.322-0.021,21.798-5.735,29.278-15.822l2.851-0.005
	c10.034,0,16.453,10.662,16.463,16.238l0.031,16.531L399.786,316.296z"/>
<path d="M63.483,267.834c0.005,0,0.071,0,0.076,0c10.571-0.02,20.501-4.155,27.962-11.644c7.46-7.489,11.559-17.435,11.539-28.006
	l-0.015-8.015c-0.041-21.78-17.794-39.5-39.649-39.5c-10.571,0.02-20.501,4.155-27.962,11.644
	c-7.46,7.489-11.559,17.434-11.539,28.006l0.015,8.015C23.951,250.114,41.704,267.834,63.483,267.834z M46.08,202.92
	c4.628-4.645,10.787-7.21,17.391-7.222c13.509,0,24.519,10.991,24.545,24.5l0.015,8.015c0.012,6.556-2.529,12.725-7.157,17.371
	c-4.628,4.645-10.787,7.21-17.344,7.222l-0.047,7.514v-7.514c-13.509,0-24.519-10.991-24.545-24.5l-0.015-8.015
	C38.911,213.734,41.452,207.565,46.08,202.92z"/>
<path d="M123.143,327.695c2.671-2.681,4.137-6.241,4.13-10.024l-0.032-17.395c-0.027-14.445-13.79-31.238-31.547-31.238
	l-6.803,0.013c-2.609,0.005-5.03,1.364-6.393,3.589c-4.753,7.757-11.644,12.212-18.942,12.226
	c-7.249,0.001-14.145-4.43-18.918-12.155c-1.37-2.215-3.788-3.565-6.392-3.565c-0.004,0-0.009,0-0.014,0l-6.803,0.013
	C13.696,269.192-0.027,286.042,0,300.516l0.033,17.361c0.015,7.815,6.384,14.173,14.199,14.173c0.005,0,0.022,0,0.027,0
	l98.876-0.186C116.918,331.856,120.473,330.375,123.143,327.695z M15.06,317.019l-0.031-16.531c-0.01-5.587,6.38-16.281,16.429-16.3
	l2.824-0.005c7.504,10.04,17.985,15.714,29.337,15.713c11.322-0.021,21.798-5.734,29.278-15.822l2.85-0.005
	c10.033,0,16.453,10.663,16.464,16.238l0.031,16.531L15.06,317.019z"/>
<path d="M180.549,437.548c-39.624-16.838-72.905-46.92-93.709-84.706c-2.002-3.635-6.571-4.959-10.206-2.958
	c-3.636,2.002-4.96,6.571-2.959,10.207c22.42,40.721,58.289,73.141,100.997,91.288c0.96,0.408,1.955,0.601,2.936,0.601
	c2.924,0,5.704-1.717,6.919-4.578C186.149,443.582,184.369,439.17,180.549,437.548z"/>
<path d="M435.515,349.218c-3.643-1.989-8.208-0.646-10.195,2.996c-20.66,37.855-53.819,68.057-93.37,85.043
	c-3.813,1.637-5.577,6.056-3.939,9.87c1.223,2.846,3.995,4.551,6.908,4.551c0.989,0,1.996-0.196,2.962-0.612
	c42.629-18.307,78.366-50.856,100.631-91.651C440.5,355.77,439.158,351.206,435.515,349.218z"/>
<path d="M317.304,77.069c42.845,14.378,79.492,43.604,103.193,82.298c1.418,2.314,3.885,3.59,6.415,3.59
	c1.338,0,2.693-0.357,3.917-1.107c3.539-2.168,4.651-6.794,2.483-10.333c-25.541-41.698-65.042-73.196-111.227-88.695
	c-3.934-1.32-8.194,0.799-9.515,4.733C311.25,71.49,313.37,75.75,317.304,77.069z"/>
<path d="M80.62,162.506c1.219,0.74,2.565,1.093,3.893,1.093c2.539,0,5.015-1.286,6.429-3.614
	c23.561-38.789,60.107-68.156,102.907-82.691c3.929-1.335,6.033-5.602,4.699-9.531s-5.602-6.035-9.531-4.699
	c-46.137,15.669-85.53,47.318-110.919,89.119C75.945,155.73,77.074,160.352,80.62,162.506z"/>
</svg>