<!DOCTYPE svg PUBLIC "-//W3C//DTD SVG 1.1//EN" "http://www.w3.org/Graphics/SVG/1.1/DTD/svg11.dtd">

<!-- Uploaded to: SVG Repo, www.svgrepo.com, Transformed by: SVG Repo Mixer Tools -->
<svg width="64px" height="64px" viewBox="-0.06 0 51.39 51.39" xmlns="http://www.w3.org/2000/svg"
    fill="#000000">

    <g id="SVGRepo_bgCarrier" stroke-width="0" />

    <g id="SVGRepo_tracerCarrier" stroke-linecap="round" stroke-linejoin="round" />

    <g id="SVGRepo_iconCarrier">
        <defs>
            <style>
                .cls-1{fill:#9ad7d2;}.cls-2{fill:#74c1b9;}.cls-3{fill:#ffffff;}.cls-4{fill:#354251;}</style>
        </defs>
        <g data-name="Layer 2" id="Layer_2">
            <g data-name="Layer 1" id="Layer_1-2">
                <g data-name="cracked plate" id="cracked_plate">
                    <path class="cls-1"
                        d="M49.09,22.45a5.19,5.19,0,0,1-5.18-4.95,5.2,5.2,0,0,1-6.77-6.91A5.22,5.22,0,0,1,34.29,3C18.86-3.28.88,8.94,1.23,25.69a24.33,24.33,0,1,0,48.44-3.27A5.49,5.49,0,0,1,49.09,22.45Z" />
                    <path class="cls-2"
                        d="M10.44,25.69A24.33,24.33,0,0,1,30.17,1.8C15.4-1.19,1.06,10.59,1.23,25.69,1.06,40.8,15.4,52.58,30.17,49.59A24.34,24.34,0,0,1,10.44,25.69Z" />
                    <path class="cls-3"
                        d="M34.44,25.69a8.88,8.88,0,0,1-8.88,8.89c-11.78-.47-11.78-17.3,0-17.77A8.88,8.88,0,0,1,34.44,25.69Z" />
                    <path class="cls-4"
                        d="M25.56,35.94A10.26,10.26,0,0,1,15.32,25.69c.56-13.59,19.92-13.58,20.48,0A10.26,10.26,0,0,1,25.56,35.94Zm0-17.77A7.53,7.53,0,0,0,18,25.69c.39,10,14.65,10,15,0A7.53,7.53,0,0,0,25.56,18.17Z" />
                    <path class="cls-4"
                        d="M25.56,51.39C-8.52,50-8.52,1.41,25.56,0a25.39,25.39,0,0,1,9.22,1.71,1.32,1.32,0,0,1,.8.83c.33,1-.83,1.91-.68,3.12A3.81,3.81,0,0,0,37.55,9.3a1.36,1.36,0,0,1,.83.74c.4.92-.47,1.76-.35,2.71a3.82,3.82,0,0,0,3.82,3.82,3.77,3.77,0,0,0,1.52-.32,1.37,1.37,0,0,1,1.9,1.19,3.81,3.81,0,0,0,3.82,3.65A1.51,1.51,0,0,1,51,22.24,25.78,25.78,0,0,1,25.56,51.39Zm0-48.67c-30.47,1.26-30.47,44.69,0,46A23,23,0,0,0,48.45,23.79a6.55,6.55,0,0,1-5.61-4.57,6.58,6.58,0,0,1-7.38-7.89,6.57,6.57,0,0,1-3-7.55A23,23,0,0,0,25.56,2.72Z" />
                    <path class="cls-4"
                        d="M18.09,44C10.54,41.32,5.68,33.63,5.66,25.69a1.36,1.36,0,1,1,2.72,0A17.2,17.2,0,0,0,18.64,41.42,1.36,1.36,0,0,1,18.09,44Z" />
                </g>
            </g>
        </g>
    </g>

</svg>